<svg width="56" height="55" viewBox="0 0 56 55" fill="none" xmlns="http://www.w3.org/2000/svg">
<g clip-path="url(#clip0_10_344)">
<path d="M42.4374 13.0848C41.5437 12.1911 40.0999 12.1911 39.2062 13.0848L27.9999 24.2682L16.7937 13.0619C15.8999 12.1682 14.4562 12.1682 13.5624 13.0619C12.6687 13.9557 12.6687 15.3994 13.5624 16.2932L24.7687 27.4994L13.5624 38.7057C12.6687 39.5994 12.6687 41.0432 13.5624 41.9369C14.4562 42.8307 15.8999 42.8307 16.7937 41.9369L27.9999 30.7307L39.2062 41.9369C40.0999 42.8307 41.5437 42.8307 42.4374 41.9369C43.3312 41.0432 43.3312 39.5994 42.4374 38.7057L31.2312 27.4994L42.4374 16.2932C43.3082 15.4223 43.3082 13.9557 42.4374 13.0848V13.0848Z" fill="black"/>
</g>
<defs>
<clipPath id="clip0_10_344">
<rect width="55" height="55" fill="white" transform="translate(0.5)"/>
</clipPath>
</defs>
</svg>
