<svg width="40" height="40" viewBox="0 0 40 40" fill="none" xmlns="http://www.w3.org/2000/svg">
<rect width="40" height="40" rx="12" fill="#7AD8A0"/>
<path d="M31.2353 11.7721H27.1983V9.77679C27.1983 8.74707 26.6634 8 25.9264 8H15.4587C14.7218 8 14.1868 8.74761 14.1868 9.77679V11.7721H9.7647C9.29687 11.7727 8.84838 11.9601 8.51758 12.2932C8.18677 12.6263 8.00064 13.0779 8 13.5489V30.2232C8.00068 30.6943 8.18682 31.1458 8.51761 31.4789C8.84841 31.8119 9.29688 31.9993 9.7647 32H31.2353C31.7031 31.9993 32.1516 31.8119 32.4824 31.4789C32.8132 31.1458 32.9993 30.6943 33 30.2232V13.5494C32.9995 13.0783 32.8134 12.6266 32.4826 12.2934C32.1517 11.9602 31.7033 11.7727 31.2353 11.7721ZM15.7916 9.77679C15.7915 9.72275 15.7952 9.66876 15.8028 9.61525H25.5827C25.5903 9.66876 25.5941 9.72275 25.5939 9.77679V11.7721H15.7916V9.77679ZM31.3957 30.2232C31.3957 30.2661 31.3788 30.3072 31.3487 30.3374C31.3187 30.3677 31.2779 30.3847 31.2353 30.3847H9.7647C9.72215 30.3847 9.68136 30.3677 9.65128 30.3374C9.6212 30.3072 9.6043 30.2661 9.60426 30.2232V20.6087H17.1302V21.0933C17.1302 21.1443 17.1402 21.1947 17.1595 21.2418C17.1789 21.2888 17.2072 21.3316 17.243 21.3676C17.2787 21.4037 17.3212 21.4322 17.368 21.4517C17.4147 21.4712 17.4648 21.4812 17.5154 21.4812H23.8698C23.9204 21.4813 23.9705 21.4713 24.0173 21.4518C24.064 21.4323 24.1065 21.4037 24.1423 21.3677C24.178 21.3317 24.2064 21.2889 24.2258 21.2418C24.2451 21.1947 24.255 21.1443 24.255 21.0933V20.6087H31.3957V30.2232ZM31.3957 18.9928H9.60426V13.5494C9.6043 13.5066 9.6212 13.4655 9.65128 13.4352C9.68136 13.405 9.72215 13.3879 9.7647 13.3879H31.2353C31.2779 13.3879 31.3187 13.405 31.3487 13.4352C31.3788 13.4655 31.3957 13.5066 31.3957 13.5494V18.9928Z" fill="white"/>
</svg>
