<svg width="16" height="15" viewBox="0 0 16 15" fill="none" xmlns="http://www.w3.org/2000/svg">
<path d="M12.6374 0.493134C12.3234 0.493862 12.0127 0.554164 11.7232 0.670559C11.4336 0.786954 11.171 0.95714 10.9504 1.1713L1.77105 9.96795L1.73506 10.1421L1.1 13.2019L0.918884 14.0186L1.77163 13.845L4.96437 13.2364L5.14548 13.2013L14.3249 4.40467C14.5489 4.19367 14.7269 3.94202 14.8484 3.6644C14.9698 3.38678 15.0324 3.08875 15.0324 2.78771C15.0324 2.48667 14.9698 2.18864 14.8484 1.91102C14.7269 1.6334 14.5489 1.38174 14.3249 1.17074C14.1042 0.956617 13.8415 0.786496 13.5518 0.670195C13.2622 0.553894 12.9514 0.493716 12.6374 0.493134ZM12.6374 1.55349C12.9299 1.55349 13.2248 1.68145 13.5081 1.95349C14.0729 2.49424 14.0729 3.08117 13.5081 3.62248L13.0913 4.00467L11.3672 2.35294L11.7666 1.95349C12.0505 1.68145 12.3448 1.55349 12.6374 1.55349ZM10.5516 3.13569L12.2746 4.78743L5.25461 11.5145C4.87564 10.8039 4.27228 10.2261 3.53054 9.86336L10.5516 3.13569ZM2.7875 10.768C3.13106 10.9004 3.44315 11.0981 3.705 11.349C3.96686 11.6 4.17309 11.8991 4.31131 12.2283L2.40612 12.5933L2.7875 10.768Z" fill="white"/>
<path d="M2.7875 10.768C3.13106 10.9004 3.44315 11.0981 3.705 11.349C3.96686 11.6 4.17309 11.8991 4.31131 12.2283L2.40612 12.5933L2.7875 10.768Z" fill="white"/>
<path d="M12.6374 1.55349C12.9299 1.55349 13.2248 1.68145 13.5081 1.95349C14.0729 2.49424 14.0729 3.08117 13.5081 3.62248L13.0913 4.00467L11.3672 2.35294L11.7666 1.95349C12.0505 1.68145 12.3448 1.55349 12.6374 1.55349Z" fill="white"/>
</svg>
