<svg width="40" height="40" viewBox="0 0 40 40" fill="none" xmlns="http://www.w3.org/2000/svg">
<rect width="40" height="40" rx="12" fill="#8338EC"/>
<path d="M15 20.9374C15.0011 21.0198 14.9856 21.1016 14.9546 21.1779C14.9235 21.2542 14.8776 21.3235 14.8193 21.3817C14.7611 21.44 14.6917 21.486 14.6154 21.517C14.5391 21.548 14.4574 21.5635 14.375 21.5624H10.9375C10.8214 21.5615 10.7077 21.529 10.6087 21.4685C10.5096 21.4079 10.4288 21.3216 10.375 21.2187C10.325 21.1139 10.3044 20.9975 10.3154 20.8819C10.3264 20.7663 10.3686 20.6559 10.4375 20.5624C10.9906 19.82 11.7287 19.2354 12.5781 18.8671C12.2131 18.533 11.9327 18.117 11.7599 17.6533C11.5871 17.1896 11.5269 16.6915 11.5842 16.2C11.6416 15.7085 11.8148 15.2376 12.0897 14.8262C12.3645 14.4147 12.7332 14.0744 13.1653 13.8332C13.5974 13.5921 14.0806 13.457 14.5751 13.4391C15.0696 13.4212 15.5613 13.521 16.0098 13.7303C16.4582 13.9395 16.8505 14.2523 17.1544 14.6428C17.4583 15.0333 17.6651 15.4904 17.7578 15.9765C17.781 16.1031 17.7649 16.2337 17.7119 16.351C17.6588 16.4682 17.5713 16.5665 17.461 16.6328C16.4505 17.2319 15.682 18.1663 15.2891 19.2734C15.0954 19.8067 14.9975 20.3701 15 20.9374ZM29.5625 20.5624C29.0094 19.82 28.2713 19.2354 27.4219 18.8671C27.7869 18.533 28.0673 18.117 28.2401 17.6533C28.4129 17.1896 28.4732 16.6915 28.4158 16.2C28.3585 15.7085 28.1853 15.2376 27.9104 14.8262C27.6355 14.4147 27.2668 14.0744 26.8347 13.8332C26.4026 13.5921 25.9194 13.457 25.4249 13.4391C24.9304 13.4212 24.4387 13.521 23.9903 13.7303C23.5419 13.9395 23.1496 14.2523 22.8457 14.6428C22.5418 15.0333 22.3349 15.4904 22.2422 15.9765C22.2191 16.1031 22.2351 16.2337 22.2882 16.351C22.3412 16.4682 22.4287 16.5665 22.5391 16.6328C23.5509 17.2304 24.3198 18.1653 24.711 19.2734C24.9047 19.8067 25.0025 20.3701 25 20.9374C24.999 21.0198 25.0144 21.1016 25.0455 21.1779C25.0765 21.2542 25.1225 21.3235 25.1807 21.3817C25.239 21.44 25.3083 21.486 25.3846 21.517C25.4609 21.548 25.5427 21.5635 25.625 21.5624H29.0625C29.1786 21.5624 29.2924 21.5301 29.3911 21.4691C29.4898 21.4081 29.5696 21.3208 29.6215 21.217C29.6735 21.1131 29.6954 20.9969 29.685 20.8813C29.6746 20.7657 29.6322 20.6553 29.5625 20.5624ZM22.2813 23.914C22.9033 23.4373 23.3603 22.7776 23.5881 22.0277C23.8159 21.2778 23.8031 20.4754 23.5513 19.7333C23.2996 18.9911 22.8217 18.3464 22.1847 17.8898C21.5478 17.4332 20.7837 17.1877 20 17.1877C19.2163 17.1877 18.4523 17.4332 17.8153 17.8898C17.1783 18.3464 16.7004 18.9911 16.4487 19.7333C16.197 20.4754 16.1841 21.2778 16.4119 22.0277C16.6397 22.7776 17.0968 23.4373 17.7188 23.914C16.5036 24.4535 15.5184 25.4055 14.9375 26.6015C14.8913 26.6966 14.8706 26.802 14.8775 26.9075C14.8843 27.0129 14.9185 27.1148 14.9766 27.2031C15.0307 27.2936 15.1074 27.3686 15.1991 27.4206C15.2909 27.4727 15.3945 27.5 15.5 27.4999H24.5C24.6055 27.5 24.7092 27.4727 24.8009 27.4206C24.8927 27.3686 24.9694 27.2936 25.0235 27.2031C25.0816 27.1148 25.1157 27.0129 25.1226 26.9075C25.1294 26.802 25.1087 26.6966 25.0625 26.6015C24.4817 25.4055 23.4965 24.4535 22.2813 23.914Z" fill="white"/>
</svg>
