<svg width="40" height="40" viewBox="0 0 40 40" fill="none" xmlns="http://www.w3.org/2000/svg">
<rect width="40" height="40" rx="12" fill="#F7CB73"/>
<path d="M23.4219 20.871C24.3549 20.1559 25.0405 19.1664 25.3822 18.0416C25.7239 16.9168 25.7046 15.7132 25.327 14.5999C24.9494 13.4866 24.2326 12.5196 23.2771 11.8347C22.3216 11.1499 21.1756 10.7815 20 10.7815C18.8245 10.7815 17.6784 11.1499 16.723 11.8347C15.7675 12.5196 15.0506 13.4866 14.6731 14.5999C14.2955 15.7132 14.2762 16.9168 14.6179 18.0416C14.9596 19.1664 15.6451 20.1559 16.5782 20.871C14.7553 21.6803 13.2776 23.1082 12.4063 24.9023C12.337 25.0448 12.3059 25.203 12.3162 25.3612C12.3265 25.5194 12.3777 25.6722 12.4649 25.8046C12.546 25.9404 12.661 26.0529 12.7987 26.1309C12.9363 26.209 13.0918 26.25 13.25 26.2499H26.75C26.9083 26.25 27.0638 26.209 27.2014 26.1309C27.339 26.0529 27.4541 25.9404 27.5352 25.8046C27.6224 25.6722 27.6736 25.5194 27.6839 25.3612C27.6942 25.203 27.6631 25.0448 27.5938 24.9023C26.7225 23.1082 25.2447 21.6803 23.4219 20.871Z" fill="white"/>
</svg>
