<svg width="18" height="18" viewBox="0 0 18 18" fill="none" xmlns="http://www.w3.org/2000/svg">
<path d="M4.41132 4.90057C5.1706 4.21559 6.06637 3.69922 7.03965 3.38546C7.12008 3.35955 7.20641 3.35812 7.28765 3.38136C7.3689 3.4046 7.44141 3.45147 7.49597 3.516L8.61985 4.84031C8.69989 4.93453 8.79946 5.01021 8.91167 5.06212C9.02387 5.11403 9.14602 5.14092 9.26965 5.14093C9.39327 5.14094 9.51543 5.11406 9.62763 5.06217C9.73984 5.01027 9.83943 4.93459 9.91948 4.84038L11.0443 3.51467C11.0989 3.45009 11.1716 3.40325 11.253 3.38011C11.3344 3.35697 11.4208 3.35857 11.5013 3.38471C12.4731 3.69999 13.3676 4.21642 14.1265 4.90037C14.1894 4.95699 14.234 5.03105 14.2547 5.11311C14.2753 5.19517 14.2711 5.28152 14.2425 5.36117L13.6575 6.99854C13.616 7.11498 13.6002 7.23906 13.6114 7.36218C13.6225 7.4853 13.6603 7.60453 13.7222 7.71159C13.784 7.81865 13.8683 7.91099 13.9694 7.98221C14.0705 8.05342 14.1858 8.10181 14.3074 8.12402L16.017 8.4356C16.1 8.45082 16.1766 8.49032 16.2371 8.5491C16.2976 8.60789 16.3394 8.68331 16.357 8.76583C16.5717 9.76524 16.5722 10.7988 16.3587 11.7984C16.3411 11.881 16.2993 11.9564 16.2387 12.0152C16.1781 12.074 16.1015 12.1135 16.0184 12.1287L14.3073 12.4405C14.1857 12.4627 14.0704 12.5111 13.9694 12.5823C13.8684 12.6535 13.784 12.7459 13.7222 12.8529C13.6604 12.96 13.6226 13.0792 13.6114 13.2023C13.6003 13.3254 13.616 13.4495 13.6576 13.5659L14.2431 15.2036C14.2715 15.2831 14.2756 15.3693 14.255 15.4511C14.2344 15.533 14.1899 15.6069 14.1272 15.6635C13.3682 16.3485 12.4727 16.865 11.4997 17.179C11.4192 17.2049 11.3329 17.2064 11.2517 17.1831C11.1704 17.1599 11.0979 17.113 11.0433 17.0485L9.91946 15.7242C9.83941 15.6299 9.73984 15.5543 9.62764 15.5024C9.51544 15.4504 9.39329 15.4236 9.26966 15.4235C9.14603 15.4235 9.02388 15.4504 8.91167 15.5023C8.79946 15.5542 8.69988 15.6299 8.61983 15.7241L7.49314 17.0497C7.4385 17.114 7.36602 17.1606 7.28487 17.1837C7.20371 17.2068 7.11754 17.2053 7.03725 17.1793C6.06545 16.8641 5.17096 16.3477 4.41205 15.6637C4.34917 15.6071 4.30456 15.533 4.28391 15.4509C4.26326 15.3689 4.26749 15.2825 4.29607 15.2029L4.88178 13.5659C4.92334 13.4495 4.93909 13.3254 4.92793 13.2023C4.91677 13.0792 4.87897 12.9599 4.81715 12.8529C4.75533 12.7458 4.67096 12.6535 4.56991 12.5823C4.46885 12.5111 4.35352 12.4627 4.2319 12.4405L2.52234 12.1289C2.43934 12.1137 2.36273 12.0742 2.30219 12.0154C2.24166 11.9566 2.19993 11.8812 2.1823 11.7986C1.96762 10.7992 1.96704 9.76571 2.18057 8.76606C2.19822 8.6835 2.23999 8.60803 2.30058 8.54924C2.36117 8.49044 2.43785 8.45096 2.52091 8.43579L4.23198 8.124C4.35357 8.10177 4.46888 8.05338 4.56992 7.98216C4.67095 7.91094 4.75529 7.81861 4.8171 7.71156C4.87891 7.6045 4.9167 7.4853 4.92786 7.36219C4.93902 7.23908 4.92328 7.11502 4.88173 6.9986L4.29621 5.36088C4.26782 5.28137 4.26367 5.19522 4.28429 5.11334C4.30492 5.03147 4.34939 4.95757 4.41206 4.901L4.41132 4.90057ZM7.79275 9.42955C7.5666 9.82125 7.50532 10.2867 7.62238 10.7236C7.73944 11.1605 8.02526 11.533 8.41696 11.7591C8.80866 11.9853 9.27415 12.0466 9.71104 11.9295C10.1479 11.8124 10.5204 11.5266 10.7466 11.1349C10.9727 10.7432 11.034 10.2777 10.9169 9.84085C10.7999 9.40397 10.514 9.03148 10.1223 8.80533C9.73064 8.57919 9.26515 8.5179 8.82827 8.63497C8.39138 8.75203 8.0189 9.03785 7.79275 9.42955V9.42955Z" fill="white"/>
</svg>
